<svg width="720.00px" height="63.60px" version="1.1" xmlns="http://www.w3.org/2000/svg" xmlns:xlink="http://www.w3.org/1999/xlink" overflow="visible">
	<desc>Engraved by Verovio 2.0.0-dev-693939c</desc>
	<defs>
		<symbol id="E050" viewBox="0 0 1000 1000" overflow="inherit">
			<path transform="scale(1,-1)" d="M441 -245c-23 -4 -48 -6 -76 -6c-59 0 -102 7 -130 20c-88 42 -150 93 -187 154c-26 44 -43 103 -48 176c-4 60 11 123 44 189c29 57 65 106 110 148s96 85 153 127c-3 16 -8 46 -13 92c-4 43 -5 73 -5 89c0 117 16 172 69 257c34 54 64 82 89 82c21 0 43 -30 69 -92 s39 -115 41 -159c2 -120 -19 -173 -67 -256c-13 -20 -63 -90 -98 -118c-13 -9 -25 -19 -37 -29l31 -181c8 1 18 2 28 2c58 0 102 -12 133 -35c59 -43 92 -104 98 -184c11 -135 -80 -229 -180 -270c8 -57 17 -110 25 -162c5 -31 6 -58 6 -80c0 -30 -5 -53 -14 -70 c-35 -64 -88 -99 -158 -103c-42 -3 -83 6 -124 26c-50 24 -77 59 -80 105c-2 34 5 63 20 87c18 28 45 42 79 44c51 4 99 -40 103 -87c4 -56 -30 -94 -105 -115c17 -24 51 -36 102 -36c62 0 116 43 140 85c9 16 13 41 13 74c0 20 -1 42 -5 67c-8 53 -18 106 -26 159zM461 939 c-95 0 -135 -175 -135 -286c0 -24 2 -48 5 -71c50 39 92 82 127 128c43 57 63 106 60 148c-4 54 -23 82 -57 81zM406 119l54 -326c80 27 116 88 109 184c-7 99 -62 146 -163 142zM382 117c-74 -2 -132 -50 -128 -127c2 -46 43 -99 75 -115c-3 -2 -7 -5 -10 -10 c-70 33 -116 88 -123 172c-5 73 42 135 88 170c23 17 49 29 78 36l-29 170c-21 -13 -52 -37 -92 -73c-50 -44 -86 -84 -109 -119c-49 -75 -71 -140 -67 -195c5 -68 35 -127 93 -176s125 -73 203 -73c25 0 50 3 75 9c-19 111 -36 221 -54 331z"></path>
		</symbol>
		<symbol id="E262" viewBox="0 0 1000 1000" overflow="inherit">
			<path transform="scale(1,-1)" d="M136 186v169h17v-164l44 14v-91l-44 -14v-165l44 12v-91l-44 -13v-155h-17v150l-76 -22v-155h-17v149l-43 -13v90l43 14v167l-43 -14v92l43 13v169h17v-163zM60 73v-167l76 22v168z"></path>
		</symbol>
		<symbol id="E082" viewBox="0 0 1000 1000" overflow="inherit">
			<path transform="scale(1,-1)" d="M104 -185c-18 0 -55 -14 -65 -65h-36l-3 29c0 25 6 46 18 64c11 19 22 30 39 43l121 82l37 29c15 11 27 29 38 54c12 24 18 47 18 70c0 40 -19 88 -94 88c-25 0 -32 0 -50 -8c-14 -5 -23 -12 -26 -22c3 -9 7 -15 10 -18l24 -17c12 -7 17 -11 27 -21c5 -7 7 -16 7 -27 c0 -12 0 -57 -79 -74c-30 0 -76 26 -76 94c0 66 80 135 196 135c72 0 182 -32 182 -150c0 -53 -32 -95 -113 -133l-91 -41c-26 -11 -45 -23 -57 -37l49 7c84 0 115 -41 148 -41c20 0 33 20 39 61h35c0 -152 -68 -168 -114 -168c-17 0 -55 0 -69 7v0l-28 17 c-49 37 -69 40 -87 42z"></path>
		</symbol>
		<symbol id="E084" viewBox="0 0 1000 1000" overflow="inherit">
			<path transform="scale(1,-1)" d="M0 -78c84 97 114 180 134 329h170c-13 -32 -82 -132 -99 -151l-84 -97c-33 -36 -59 -63 -80 -81h162v102l127 123v-225h57v-39h-57v-34c0 -43 19 -65 57 -65v-34h-244v36c48 0 60 26 60 70v27h-203v39z"></path>
		</symbol>
		<symbol id="E0A4" viewBox="0 0 1000 1000" overflow="inherit">
			<path transform="scale(1,-1)" d="M0 -39c0 68 73 172 200 172c66 0 114 -37 114 -95c0 -84 -106 -171 -218 -171c-64 0 -96 30 -96 94z"></path>
		</symbol>
		<symbol id="E240" viewBox="0 0 1000 1000" overflow="inherit">
			<path transform="scale(1,-1)" d="M179 -646c15 29 28.5449 55.0752 46 102c18.3213 49.2549 30 108.298 30 138c0 105 -80 173 -168 200c-18 5 -47 9 -87 16v190h22c8 0 33 -61 71 -95c4 -3 -2 3 61 -56c62 -58 122 -137 122 -241c0 -37.5245 -12.6807 -106.071 -35 -163 c-19.9111 -50.7861 -43 -99 -66 -132c-6 -5 -10 -7 -13 -7s-5 2 -5 5l4 10c1.17241 2.93103 13.7644 24.8111 18 33z"></path>
		</symbol>
		<symbol id="E241" viewBox="0 0 1000 1000" overflow="inherit">
			<path transform="scale(1,-1)" d="M179 646c15 -29 28.5449 -55.0752 46 -102c18.3213 -49.2549 30 -108.298 30 -138c0 -105 -80 -173 -168 -200c-18 -5 -47 -9 -87 -16v-190h22c8 0 33 61 71 95c4 3 -2 -3 61 56c62 58 122 137 122 241c0 37.5244 -12.6807 106.071 -35 163 c-19.9111 50.7861 -43 99 -66 132c-6 5 -10 7 -13 7s-5 -2 -5 -5l4 -10c1.17285 -2.93066 13.7646 -24.8115 18 -33z"></path>
		</symbol>
	</defs>
	<style type="text/css">g.page-margin{font-family:Times;} g.tempo{font-weight:bold;} g.dir, g.dynam, g.mNum{font-style:italic;} g.label{font-weight:normal;}</style>
	<svg class="definition-scale" viewBox="0 0 18000 1590">
		<g class="page-margin" transform="translate(200, 200)">
			<g class="system" id="system-0000001190520622">
				<g class="section boundaryStart" id="section-0000001490676477"></g>
				<g class="measure" id="measure-0000000141680885">
					<g class="staff" id="staff-0000001896187047">
						<path d="M0 359 L3656 359" stroke="#000000" stroke-width="13"></path>
						<path d="M0 539 L3656 539" stroke="#000000" stroke-width="13"></path>
						<path d="M0 719 L3656 719" stroke="#000000" stroke-width="13"></path>
						<path d="M0 899 L3656 899" stroke="#000000" stroke-width="13"></path>
						<path d="M0 1079 L3656 1079" stroke="#000000" stroke-width="13"></path>
						<g class="clef" id="clef-0000001785369057">
							<use xlink:href="#E050" x="90" y="899" height="720px" width="720px"></use>
						</g>
						<g class="keySig" id="keysig-0000001660029269">
							<use xlink:href="#E262" x="735" y="359" height="720px" width="720px"></use>
						</g>
						<g class="meterSig" id="msig-0000000954268796">
							<use xlink:href="#E082" x="1056" y="539" height="720px" width="720px"></use>
							<use xlink:href="#E084" x="1062" y="899" height="720px" width="720px"></use>
						</g>
						<g class="layer" id="layer-0000001484553652">
							<g class="note" id="note-0000002009481840">
								<use xlink:href="#E0A4" x="1615" y="899" height="720px" width="720px"></use>
								<g class="stem">
									<rect x="1823" y="269" height="608" width="18"></rect>
									<g class="flag" id="flag-0000001369938842">
										<use xlink:href="#E240" x="1823" y="269" height="720px" width="720px"></use>
									</g>
								</g>
								<g class="accid" id="accid-0000000962121112"></g>
							</g>
							<g class="beam" id="beam-0000001621363024">
								<polygon points="2319,77 2653,45 2653,135 2319,167 "></polygon>
								<polygon points="2319,212 2653,180 2653,270 2319,302 "></polygon>
								<g class="note" id="note-0000000963341981">
									<use xlink:href="#E0A4" x="2111" y="899" height="720px" width="720px"></use>
									<g class="stem">
										<rect x="2319" y="95" height="782" width="18"></rect>
									</g>
									<g class="accid" id="accid-0000002133384578"></g>
								</g>
								<g class="note" id="note-0000002039663207">
									<use xlink:href="#E0A4" x="2427" y="719" height="720px" width="720px"></use>
									<g class="stem">
										<rect x="2635" y="63" height="634" width="18"></rect>
									</g>
									<g class="accid" id="accid-0000000652191790"></g>
								</g>
							</g>
							<g class="note" id="note-0000001107079834">
								<use xlink:href="#E0A4" x="2743" y="539" height="720px" width="720px"></use>
								<g class="stem">
									<rect x="2743" y="561" height="608" width="18"></rect>
									<g class="flag" id="flag-0000002097059366">
										<use xlink:href="#E241" x="2743" y="1169" height="720px" width="720px"></use>
									</g>
								</g>
								<g class="accid" id="accid-0000000418616852"></g>
							</g>
							<g class="note" id="note-0000000450639059">
								<use xlink:href="#E0A4" x="3193" y="539" height="720px" width="720px"></use>
								<g class="stem">
									<rect x="3193" y="561" height="608" width="18"></rect>
									<g class="flag" id="flag-0000000824336273">
										<use xlink:href="#E241" x="3193" y="1169" height="720px" width="720px"></use>
									</g>
								</g>
								<g class="accid" id="accid-0000001734434255"></g>
							</g>
						</g>
					</g>
					<g class="barLineAttr" id="bline-0000000987191878">
						<path d="M3643 1079 L3643 359" stroke="#000000" stroke-width="27"></path>
					</g>
				</g>
				<g class="measure" id="measure-0000000497019050">
					<g class="staff" id="staff-0000000822322868">
						<path d="M3656 359 L5439 359" stroke="#000000" stroke-width="13"></path>
						<path d="M3656 539 L5439 539" stroke="#000000" stroke-width="13"></path>
						<path d="M3656 719 L5439 719" stroke="#000000" stroke-width="13"></path>
						<path d="M3656 899 L5439 899" stroke="#000000" stroke-width="13"></path>
						<path d="M3656 1079 L5439 1079" stroke="#000000" stroke-width="13"></path>
						<g class="layer" id="layer-0000001161627658">
							<g class="note" id="note-0000001661261409">
								<use xlink:href="#E0A4" x="3836" y="449" height="720px" width="720px"></use>
								<g class="stem">
									<rect x="3836" y="471" height="608" width="18"></rect>
									<g class="flag" id="flag-0000002110082215">
										<use xlink:href="#E241" x="3836" y="1079" height="720px" width="720px"></use>
									</g>
								</g>
								<g class="accid" id="accid-0000000718101171"></g>
							</g>
							<g class="note" id="note-0000001061618540">
								<use xlink:href="#E0A4" x="4286" y="449" height="720px" width="720px"></use>
								<g class="stem">
									<rect x="4286" y="471" height="608" width="18"></rect>
									<g class="flag" id="flag-0000001101515453">
										<use xlink:href="#E241" x="4286" y="1079" height="720px" width="720px"></use>
									</g>
								</g>
								<g class="accid" id="accid-0000001515489743"></g>
							</g>
							<g class="note" id="note-0000001081532637">
								<use xlink:href="#E0A4" x="4736" y="539" height="720px" width="720px"></use>
								<g class="stem">
									<rect x="4736" y="561" height="608" width="18"></rect>
								</g>
								<g class="accid" id="accid-0000000317809424"></g>
							</g>
						</g>
					</g>
					<g class="barLineAttr" id="bline-0000000712634697">
						<path d="M5426 1079 L5426 359" stroke="#000000" stroke-width="27"></path>
					</g>
				</g>
				<g class="measure" id="measure-0000000220093755">
					<g class="staff" id="staff-0000001343911546">
						<path d="M5439 359 L7432 359" stroke="#000000" stroke-width="13"></path>
						<path d="M5439 539 L7432 539" stroke="#000000" stroke-width="13"></path>
						<path d="M5439 719 L7432 719" stroke="#000000" stroke-width="13"></path>
						<path d="M5439 899 L7432 899" stroke="#000000" stroke-width="13"></path>
						<path d="M5439 1079 L7432 1079" stroke="#000000" stroke-width="13"></path>
						<g class="layer" id="layer-0000000840358572">
							<g class="note" id="note-0000001532557158">
								<use xlink:href="#E0A4" x="5619" y="629" height="720px" width="720px"></use>
								<g class="stem">
									<rect x="5619" y="651" height="608" width="18"></rect>
									<g class="flag" id="flag-0000001171141155">
										<use xlink:href="#E241" x="5619" y="1259" height="720px" width="720px"></use>
									</g>
								</g>
								<g class="accid" id="accid-0000001720391318"></g>
							</g>
							<g class="note" id="note-0000001779591260">
								<use xlink:href="#E0A4" x="6069" y="629" height="720px" width="720px"></use>
								<g class="stem">
									<rect x="6069" y="651" height="608" width="18"></rect>
									<g class="flag" id="flag-0000002072297063">
										<use xlink:href="#E241" x="6069" y="1259" height="720px" width="720px"></use>
									</g>
								</g>
								<g class="accid" id="accid-0000000749653506"></g>
							</g>
							<g class="note" id="note-0000000356840904">
								<use xlink:href="#E0A4" x="6519" y="719" height="720px" width="720px"></use>
								<g class="stem">
									<rect x="6519" y="741" height="608" width="18"></rect>
									<g class="flag" id="flag-0000001281318803">
										<use xlink:href="#E241" x="6519" y="1349" height="720px" width="720px"></use>
									</g>
								</g>
								<g class="accid" id="accid-0000000806612512"></g>
							</g>
							<g class="note" id="note-0000001246152420">
								<use xlink:href="#E0A4" x="6969" y="719" height="720px" width="720px"></use>
								<g class="stem">
									<rect x="6969" y="741" height="608" width="18"></rect>
									<g class="flag" id="flag-0000000430376377">
										<use xlink:href="#E241" x="6969" y="1349" height="720px" width="720px"></use>
									</g>
								</g>
								<g class="accid" id="accid-0000000262161423"></g>
							</g>
						</g>
					</g>
					<g class="barLineAttr" id="bline-0000001089198670">
						<path d="M7419 1079 L7419 359" stroke="#000000" stroke-width="27"></path>
					</g>
				</g>
				<g class="measure" id="measure-0000001694165961">
					<g class="staff" id="staff-0000000536122196">
						<path d="M7432 359 L9307 359" stroke="#000000" stroke-width="13"></path>
						<path d="M7432 539 L9307 539" stroke="#000000" stroke-width="13"></path>
						<path d="M7432 719 L9307 719" stroke="#000000" stroke-width="13"></path>
						<path d="M7432 899 L9307 899" stroke="#000000" stroke-width="13"></path>
						<path d="M7432 1079 L9307 1079" stroke="#000000" stroke-width="13"></path>
						<g class="layer" id="layer-0000000979115123">
							<g class="note" id="note-0000001315514864">
								<use xlink:href="#E0A4" x="7612" y="809" height="720px" width="720px"></use>
								<g class="stem">
									<rect x="7820" y="179" height="608" width="18"></rect>
									<g class="flag" id="flag-0000000627148797">
										<use xlink:href="#E240" x="7820" y="179" height="720px" width="720px"></use>
									</g>
								</g>
								<g class="accid" id="accid-0000000634440774"></g>
							</g>
							<g class="note" id="note-0000000331807227">
								<use xlink:href="#E0A4" x="8108" y="809" height="720px" width="720px"></use>
								<g class="stem">
									<rect x="8316" y="179" height="608" width="18"></rect>
									<g class="flag" id="flag-0000001513473009">
										<use xlink:href="#E240" x="8316" y="179" height="720px" width="720px"></use>
									</g>
								</g>
								<g class="accid" id="accid-0000000918659198"></g>
							</g>
							<g class="note" id="note-0000001576317466">
								<use xlink:href="#E0A4" x="8604" y="899" height="720px" width="720px"></use>
								<g class="stem">
									<rect x="8812" y="269" height="608" width="18"></rect>
								</g>
								<g class="accid" id="accid-0000000756754377"></g>
							</g>
						</g>
					</g>
					<g class="barLineAttr" id="bline-0000001603518923">
						<path d="M9294 1079 L9294 359" stroke="#000000" stroke-width="27"></path>
					</g>
				</g>
				<g class="boundaryEnd section-0000001490676477" id="bdend-0000001881297902"></g>
			</g>
			<g class="pgHead autogenerated" id="pghead-0000001986677709"></g>
		</g>
	</svg>
</svg>