<svg width="720.00px" height="61.60px" version="1.1" xmlns="http://www.w3.org/2000/svg" xmlns:xlink="http://www.w3.org/1999/xlink" overflow="visible">
	<desc>Engraved by Verovio 2.0.0-dev-693939c</desc>
	<defs>
		<symbol id="E050" viewBox="0 0 1000 1000" overflow="inherit">
			<path transform="scale(1,-1)" d="M441 -245c-23 -4 -48 -6 -76 -6c-59 0 -102 7 -130 20c-88 42 -150 93 -187 154c-26 44 -43 103 -48 176c-4 60 11 123 44 189c29 57 65 106 110 148s96 85 153 127c-3 16 -8 46 -13 92c-4 43 -5 73 -5 89c0 117 16 172 69 257c34 54 64 82 89 82c21 0 43 -30 69 -92 s39 -115 41 -159c2 -120 -19 -173 -67 -256c-13 -20 -63 -90 -98 -118c-13 -9 -25 -19 -37 -29l31 -181c8 1 18 2 28 2c58 0 102 -12 133 -35c59 -43 92 -104 98 -184c11 -135 -80 -229 -180 -270c8 -57 17 -110 25 -162c5 -31 6 -58 6 -80c0 -30 -5 -53 -14 -70 c-35 -64 -88 -99 -158 -103c-42 -3 -83 6 -124 26c-50 24 -77 59 -80 105c-2 34 5 63 20 87c18 28 45 42 79 44c51 4 99 -40 103 -87c4 -56 -30 -94 -105 -115c17 -24 51 -36 102 -36c62 0 116 43 140 85c9 16 13 41 13 74c0 20 -1 42 -5 67c-8 53 -18 106 -26 159zM461 939 c-95 0 -135 -175 -135 -286c0 -24 2 -48 5 -71c50 39 92 82 127 128c43 57 63 106 60 148c-4 54 -23 82 -57 81zM406 119l54 -326c80 27 116 88 109 184c-7 99 -62 146 -163 142zM382 117c-74 -2 -132 -50 -128 -127c2 -46 43 -99 75 -115c-3 -2 -7 -5 -10 -10 c-70 33 -116 88 -123 172c-5 73 42 135 88 170c23 17 49 29 78 36l-29 170c-21 -13 -52 -37 -92 -73c-50 -44 -86 -84 -109 -119c-49 -75 -71 -140 -67 -195c5 -68 35 -127 93 -176s125 -73 203 -73c25 0 50 3 75 9c-19 111 -36 221 -54 331z"></path>
		</symbol>
		<symbol id="E262" viewBox="0 0 1000 1000" overflow="inherit">
			<path transform="scale(1,-1)" d="M136 186v169h17v-164l44 14v-91l-44 -14v-165l44 12v-91l-44 -13v-155h-17v150l-76 -22v-155h-17v149l-43 -13v90l43 14v167l-43 -14v92l43 13v169h17v-163zM60 73v-167l76 22v168z"></path>
		</symbol>
		<symbol id="E082" viewBox="0 0 1000 1000" overflow="inherit">
			<path transform="scale(1,-1)" d="M104 -185c-18 0 -55 -14 -65 -65h-36l-3 29c0 25 6 46 18 64c11 19 22 30 39 43l121 82l37 29c15 11 27 29 38 54c12 24 18 47 18 70c0 40 -19 88 -94 88c-25 0 -32 0 -50 -8c-14 -5 -23 -12 -26 -22c3 -9 7 -15 10 -18l24 -17c12 -7 17 -11 27 -21c5 -7 7 -16 7 -27 c0 -12 0 -57 -79 -74c-30 0 -76 26 -76 94c0 66 80 135 196 135c72 0 182 -32 182 -150c0 -53 -32 -95 -113 -133l-91 -41c-26 -11 -45 -23 -57 -37l49 7c84 0 115 -41 148 -41c20 0 33 20 39 61h35c0 -152 -68 -168 -114 -168c-17 0 -55 0 -69 7v0l-28 17 c-49 37 -69 40 -87 42z"></path>
		</symbol>
		<symbol id="E084" viewBox="0 0 1000 1000" overflow="inherit">
			<path transform="scale(1,-1)" d="M0 -78c84 97 114 180 134 329h170c-13 -32 -82 -132 -99 -151l-84 -97c-33 -36 -59 -63 -80 -81h162v102l127 123v-225h57v-39h-57v-34c0 -43 19 -65 57 -65v-34h-244v36c48 0 60 26 60 70v27h-203v39z"></path>
		</symbol>
		<symbol id="E0A4" viewBox="0 0 1000 1000" overflow="inherit">
			<path transform="scale(1,-1)" d="M0 -39c0 68 73 172 200 172c66 0 114 -37 114 -95c0 -84 -106 -171 -218 -171c-64 0 -96 30 -96 94z"></path>
		</symbol>
		<symbol id="E0A3" viewBox="0 0 1000 1000" overflow="inherit">
			<path transform="scale(1,-1)" d="M98 -102zM200 138l41 -5c-2 0 -41 5 -41 5zM278 64c0 22 -17 39 -43 39c-12 0 -26 -3 -41 -10c-85 -43 -165 -94 -165 -156c5 -25 15 -32 49 -32c67 11 200 95 200 159zM0 -36c0 68 73 174 200 174c66 0 114 -39 114 -97c0 -84 -106 -173 -218 -173c-64 0 -96 32 -96 96z "></path>
		</symbol>
	</defs>
	<style type="text/css">g.page-margin{font-family:Times;} g.tempo{font-weight:bold;} g.dir, g.dynam, g.mNum{font-style:italic;} g.label{font-weight:normal;}</style>
	<svg class="definition-scale" viewBox="0 0 18000 1540">
		<g class="page-margin" transform="translate(200, 200)">
			<g class="system" id="system-0000000576507067">
				<g class="section boundaryStart" id="section-0000000513579310"></g>
				<g class="measure" id="measure-0000001802264380">
					<g class="staff" id="staff-0000001904388020">
						<path d="M0 314 L3008 314" stroke="#000000" stroke-width="13"></path>
						<path d="M0 494 L3008 494" stroke="#000000" stroke-width="13"></path>
						<path d="M0 674 L3008 674" stroke="#000000" stroke-width="13"></path>
						<path d="M0 854 L3008 854" stroke="#000000" stroke-width="13"></path>
						<path d="M0 1034 L3008 1034" stroke="#000000" stroke-width="13"></path>
						<g class="clef" id="clef-0000000996234690">
							<use xlink:href="#E050" x="90" y="854" height="720px" width="720px"></use>
						</g>
						<g class="keySig" id="keysig-0000000010585500">
							<use xlink:href="#E262" x="735" y="314" height="720px" width="720px"></use>
						</g>
						<g class="meterSig" id="msig-0000001707500004">
							<use xlink:href="#E082" x="1056" y="494" height="720px" width="720px"></use>
							<use xlink:href="#E084" x="1062" y="854" height="720px" width="720px"></use>
						</g>
						<g class="layer" id="layer-0000001596979364">
							<g class="note" id="note-0000000181123859">
								<use xlink:href="#E0A4" x="1615" y="854" height="720px" width="720px"></use>
								<g class="stem">
									<rect x="1823" y="224" height="608" width="18"></rect>
								</g>
								<g class="accid" id="accid-0000001363438247"></g>
							</g>
							<g class="note" id="note-0000000350520806">
								<use xlink:href="#E0A4" x="2305" y="854" height="720px" width="720px"></use>
								<g class="stem">
									<rect x="2513" y="224" height="608" width="18"></rect>
								</g>
								<g class="accid" id="accid-0000001345824306"></g>
							</g>
						</g>
					</g>
					<g class="barLineAttr" id="bline-0000000345089670">
						<path d="M2995 1034 L2995 314" stroke="#000000" stroke-width="27"></path>
					</g>
				</g>
				<g class="measure" id="measure-0000000326433581">
					<g class="staff" id="staff-0000000206975377">
						<path d="M3008 314 L4581 314" stroke="#000000" stroke-width="13"></path>
						<path d="M3008 494 L4581 494" stroke="#000000" stroke-width="13"></path>
						<path d="M3008 674 L4581 674" stroke="#000000" stroke-width="13"></path>
						<path d="M3008 854 L4581 854" stroke="#000000" stroke-width="13"></path>
						<path d="M3008 1034 L4581 1034" stroke="#000000" stroke-width="13"></path>
						<g class="layer" id="layer-0000000595337615">
							<g class="note" id="note-0000000257528471">
								<use xlink:href="#E0A4" x="3188" y="494" height="720px" width="720px"></use>
								<g class="stem">
									<rect x="3188" y="516" height="608" width="18"></rect>
								</g>
								<g class="accid" id="accid-0000000975618805"></g>
							</g>
							<g class="note" id="note-0000001173741618">
								<use xlink:href="#E0A4" x="3878" y="494" height="720px" width="720px"></use>
								<g class="stem">
									<rect x="3878" y="516" height="608" width="18"></rect>
								</g>
								<g class="accid" id="accid-0000001824288592"></g>
							</g>
						</g>
					</g>
					<g class="barLineAttr" id="bline-0000001611667722">
						<path d="M4568 1034 L4568 314" stroke="#000000" stroke-width="27"></path>
					</g>
				</g>
				<g class="measure" id="measure-0000001304752348">
					<g class="staff" id="staff-0000001059754451">
						<path d="M4581 314 L6574 314" stroke="#000000" stroke-width="13"></path>
						<path d="M4581 494 L6574 494" stroke="#000000" stroke-width="13"></path>
						<path d="M4581 674 L6574 674" stroke="#000000" stroke-width="13"></path>
						<path d="M4581 854 L6574 854" stroke="#000000" stroke-width="13"></path>
						<path d="M4581 1034 L6574 1034" stroke="#000000" stroke-width="13"></path>
						<g class="layer" id="layer-0000000030895666">
							<g class="beam" id="beam-0000001949442244">
								<polygon points="4761,1061 6129,1034 6129,944 4761,971 "></polygon>
								<g class="note" id="note-0000000278898593">
									<use xlink:href="#E0A4" x="4761" y="404" height="720px" width="720px"></use>
									<g class="stem">
										<rect x="4761" y="426" height="617" width="18"></rect>
									</g>
									<g class="accid" id="accid-0000001853626721"></g>
								</g>
								<g class="note" id="note-0000000880817335">
									<use xlink:href="#E0A4" x="5211" y="314" height="720px" width="720px"></use>
									<g class="stem">
										<rect x="5211" y="336" height="698" width="18"></rect>
									</g>
									<g class="accid" id="accid-0000002124359753"></g>
								</g>
								<g class="note" id="note-0000001159282869">
									<use xlink:href="#E0A4" x="5661" y="224" height="720px" width="720px"></use>
									<g class="stem">
										<rect x="5661" y="246" height="779" width="18"></rect>
									</g>
									<g class="accid" id="accid-0000002064192534"></g>
								</g>
								<g class="note" id="note-0000001170432794">
									<use xlink:href="#E0A4" x="6111" y="404" height="720px" width="720px"></use>
									<g class="stem">
										<rect x="6111" y="426" height="590" width="18"></rect>
									</g>
									<g class="accid" id="accid-0000000345753612"></g>
								</g>
							</g>
						</g>
					</g>
					<g class="barLineAttr" id="bline-0000000638185151">
						<path d="M6561 1034 L6561 314" stroke="#000000" stroke-width="27"></path>
					</g>
				</g>
				<g class="measure" id="measure-0000001146499504">
					<g class="staff" id="staff-0000001594524593">
						<path d="M6574 314 L7817 314" stroke="#000000" stroke-width="13"></path>
						<path d="M6574 494 L7817 494" stroke="#000000" stroke-width="13"></path>
						<path d="M6574 674 L7817 674" stroke="#000000" stroke-width="13"></path>
						<path d="M6574 854 L7817 854" stroke="#000000" stroke-width="13"></path>
						<path d="M6574 1034 L7817 1034" stroke="#000000" stroke-width="13"></path>
						<g class="layer" id="layer-0000000084287080">
							<g class="note" id="note-0000001399061915">
								<use xlink:href="#E0A3" x="6754" y="494" height="720px" width="720px"></use>
								<g class="stem">
									<rect x="6754" y="516" height="608" width="18"></rect>
								</g>
								<g class="accid" id="accid-0000001966526839"></g>
							</g>
						</g>
					</g>
					<g class="barLineAttr" id="bline-0000000164994953">
						<path d="M7804 1034 L7804 314" stroke="#000000" stroke-width="27"></path>
					</g>
				</g>
				<g class="measure" id="measure-0000001041957621">
					<g class="staff" id="staff-0000002127435716">
						<path d="M7817 314 L9390 314" stroke="#000000" stroke-width="13"></path>
						<path d="M7817 494 L9390 494" stroke="#000000" stroke-width="13"></path>
						<path d="M7817 674 L9390 674" stroke="#000000" stroke-width="13"></path>
						<path d="M7817 854 L9390 854" stroke="#000000" stroke-width="13"></path>
						<path d="M7817 1034 L9390 1034" stroke="#000000" stroke-width="13"></path>
						<g class="layer" id="layer-0000001256464387">
							<g class="note" id="note-0000000235631171">
								<use xlink:href="#E0A4" x="7997" y="584" height="720px" width="720px"></use>
								<g class="stem">
									<rect x="7997" y="606" height="608" width="18"></rect>
								</g>
								<g class="accid" id="accid-0000000815333536"></g>
							</g>
							<g class="note" id="note-0000001252681706">
								<use xlink:href="#E0A4" x="8687" y="584" height="720px" width="720px"></use>
								<g class="stem">
									<rect x="8687" y="606" height="608" width="18"></rect>
								</g>
								<g class="accid" id="accid-0000000539815488"></g>
							</g>
						</g>
					</g>
					<g class="barLineAttr" id="bline-0000000148239995">
						<path d="M9377 1034 L9377 314" stroke="#000000" stroke-width="27"></path>
					</g>
				</g>
				<g class="measure" id="measure-0000001500611105">
					<g class="staff" id="staff-0000000080258795">
						<path d="M9390 314 L10963 314" stroke="#000000" stroke-width="13"></path>
						<path d="M9390 494 L10963 494" stroke="#000000" stroke-width="13"></path>
						<path d="M9390 674 L10963 674" stroke="#000000" stroke-width="13"></path>
						<path d="M9390 854 L10963 854" stroke="#000000" stroke-width="13"></path>
						<path d="M9390 1034 L10963 1034" stroke="#000000" stroke-width="13"></path>
						<g class="layer" id="layer-0000000444625124">
							<g class="note" id="note-0000000909594519">
								<use xlink:href="#E0A4" x="9570" y="674" height="720px" width="720px"></use>
								<g class="stem">
									<rect x="9570" y="696" height="608" width="18"></rect>
								</g>
								<g class="accid" id="accid-0000001255297773"></g>
							</g>
							<g class="note" id="note-0000000593226034">
								<use xlink:href="#E0A4" x="10260" y="674" height="720px" width="720px"></use>
								<g class="stem">
									<rect x="10260" y="696" height="608" width="18"></rect>
								</g>
								<g class="accid" id="accid-0000001837614147"></g>
							</g>
						</g>
					</g>
					<g class="barLineAttr" id="bline-0000001655178249">
						<path d="M10950 1034 L10950 314" stroke="#000000" stroke-width="27"></path>
					</g>
				</g>
				<g class="measure" id="measure-0000002066019794">
					<g class="staff" id="staff-0000001928921222">
						<path d="M10963 314 L12746 314" stroke="#000000" stroke-width="13"></path>
						<path d="M10963 494 L12746 494" stroke="#000000" stroke-width="13"></path>
						<path d="M10963 674 L12746 674" stroke="#000000" stroke-width="13"></path>
						<path d="M10963 854 L12746 854" stroke="#000000" stroke-width="13"></path>
						<path d="M10963 1034 L12746 1034" stroke="#000000" stroke-width="13"></path>
						<g class="layer" id="layer-0000001184094400">
							<g class="note" id="note-0000000465186068">
								<use xlink:href="#E0A4" x="11143" y="764" height="720px" width="720px"></use>
								<g class="stem">
									<rect x="11351" y="134" height="608" width="18"></rect>
								</g>
								<g class="accid" id="accid-0000002084341370"></g>
							</g>
							<g class="beam" id="beam-0000001630159011">
								<polygon points="12041,90 12509,45 12509,135 12041,180 "></polygon>
								<g class="note" id="note-0000000686503114">
									<use xlink:href="#E0A4" x="11833" y="764" height="720px" width="720px"></use>
									<g class="stem">
										<rect x="12041" y="108" height="634" width="18"></rect>
									</g>
									<g class="accid" id="accid-0000001230371494"></g>
								</g>
								<g class="note" id="note-0000001155170244">
									<use xlink:href="#E0A4" x="12283" y="674" height="720px" width="720px"></use>
									<g class="stem">
										<rect x="12491" y="63" height="589" width="18"></rect>
									</g>
									<g class="accid" id="accid-0000001541249120"></g>
								</g>
							</g>
						</g>
					</g>
					<g class="barLineAttr" id="bline-0000000014390119">
						<path d="M12733 1034 L12733 314" stroke="#000000" stroke-width="27"></path>
					</g>
				</g>
				<g class="measure" id="measure-0000001846692434">
					<g class="staff" id="staff-0000000469775716">
						<path d="M12746 314 L13976 314" stroke="#000000" stroke-width="13"></path>
						<path d="M12746 494 L13976 494" stroke="#000000" stroke-width="13"></path>
						<path d="M12746 674 L13976 674" stroke="#000000" stroke-width="13"></path>
						<path d="M12746 854 L13976 854" stroke="#000000" stroke-width="13"></path>
						<path d="M12746 1034 L13976 1034" stroke="#000000" stroke-width="13"></path>
						<g class="layer" id="layer-0000002037951933">
							<g class="note" id="note-0000002096866559">
								<use xlink:href="#E0A3" x="12926" y="854" height="720px" width="720px"></use>
								<g class="stem">
									<rect x="13134" y="224" height="608" width="18"></rect>
								</g>
								<g class="accid" id="accid-0000002062710141"></g>
							</g>
						</g>
					</g>
					<g class="barLineAttr" id="bline-0000002038411524"></g>
				</g>
				<g class="boundaryEnd section-0000000513579310" id="bdend-0000000427974088"></g>
			</g>
			<g class="pgHead autogenerated" id="pghead-0000000210582430"></g>
		</g>
	</svg>
</svg>