<svg width="720.00px" height="61.20px" version="1.1" xmlns="http://www.w3.org/2000/svg" xmlns:xlink="http://www.w3.org/1999/xlink" overflow="visible">
	<desc>Engraved by Verovio 2.0.0-dev-693939c</desc>
	<defs>
		<symbol id="E050" viewBox="0 0 1000 1000" overflow="inherit">
			<path transform="scale(1,-1)" d="M441 -245c-23 -4 -48 -6 -76 -6c-59 0 -102 7 -130 20c-88 42 -150 93 -187 154c-26 44 -43 103 -48 176c-4 60 11 123 44 189c29 57 65 106 110 148s96 85 153 127c-3 16 -8 46 -13 92c-4 43 -5 73 -5 89c0 117 16 172 69 257c34 54 64 82 89 82c21 0 43 -30 69 -92 s39 -115 41 -159c2 -120 -19 -173 -67 -256c-13 -20 -63 -90 -98 -118c-13 -9 -25 -19 -37 -29l31 -181c8 1 18 2 28 2c58 0 102 -12 133 -35c59 -43 92 -104 98 -184c11 -135 -80 -229 -180 -270c8 -57 17 -110 25 -162c5 -31 6 -58 6 -80c0 -30 -5 -53 -14 -70 c-35 -64 -88 -99 -158 -103c-42 -3 -83 6 -124 26c-50 24 -77 59 -80 105c-2 34 5 63 20 87c18 28 45 42 79 44c51 4 99 -40 103 -87c4 -56 -30 -94 -105 -115c17 -24 51 -36 102 -36c62 0 116 43 140 85c9 16 13 41 13 74c0 20 -1 42 -5 67c-8 53 -18 106 -26 159zM461 939 c-95 0 -135 -175 -135 -286c0 -24 2 -48 5 -71c50 39 92 82 127 128c43 57 63 106 60 148c-4 54 -23 82 -57 81zM406 119l54 -326c80 27 116 88 109 184c-7 99 -62 146 -163 142zM382 117c-74 -2 -132 -50 -128 -127c2 -46 43 -99 75 -115c-3 -2 -7 -5 -10 -10 c-70 33 -116 88 -123 172c-5 73 42 135 88 170c23 17 49 29 78 36l-29 170c-21 -13 -52 -37 -92 -73c-50 -44 -86 -84 -109 -119c-49 -75 -71 -140 -67 -195c5 -68 35 -127 93 -176s125 -73 203 -73c25 0 50 3 75 9c-19 111 -36 221 -54 331z"></path>
		</symbol>
		<symbol id="E262" viewBox="0 0 1000 1000" overflow="inherit">
			<path transform="scale(1,-1)" d="M136 186v169h17v-164l44 14v-91l-44 -14v-165l44 12v-91l-44 -13v-155h-17v150l-76 -22v-155h-17v149l-43 -13v90l43 14v167l-43 -14v92l43 13v169h17v-163zM60 73v-167l76 22v168z"></path>
		</symbol>
		<symbol id="E082" viewBox="0 0 1000 1000" overflow="inherit">
			<path transform="scale(1,-1)" d="M104 -185c-18 0 -55 -14 -65 -65h-36l-3 29c0 25 6 46 18 64c11 19 22 30 39 43l121 82l37 29c15 11 27 29 38 54c12 24 18 47 18 70c0 40 -19 88 -94 88c-25 0 -32 0 -50 -8c-14 -5 -23 -12 -26 -22c3 -9 7 -15 10 -18l24 -17c12 -7 17 -11 27 -21c5 -7 7 -16 7 -27 c0 -12 0 -57 -79 -74c-30 0 -76 26 -76 94c0 66 80 135 196 135c72 0 182 -32 182 -150c0 -53 -32 -95 -113 -133l-91 -41c-26 -11 -45 -23 -57 -37l49 7c84 0 115 -41 148 -41c20 0 33 20 39 61h35c0 -152 -68 -168 -114 -168c-17 0 -55 0 -69 7v0l-28 17 c-49 37 -69 40 -87 42z"></path>
		</symbol>
		<symbol id="E0A4" viewBox="0 0 1000 1000" overflow="inherit">
			<path transform="scale(1,-1)" d="M0 -39c0 68 73 172 200 172c66 0 114 -37 114 -95c0 -84 -106 -171 -218 -171c-64 0 -96 30 -96 94z"></path>
		</symbol>
		<symbol id="E241" viewBox="0 0 1000 1000" overflow="inherit">
			<path transform="scale(1,-1)" d="M179 646c15 -29 28.5449 -55.0752 46 -102c18.3213 -49.2549 30 -108.298 30 -138c0 -105 -80 -173 -168 -200c-18 -5 -47 -9 -87 -16v-190h22c8 0 33 61 71 95c4 3 -2 -3 61 56c62 58 122 137 122 241c0 37.5244 -12.6807 106.071 -35 163 c-19.9111 50.7861 -43 99 -66 132c-6 5 -10 7 -13 7s-5 -2 -5 -5l4 -10c1.17285 -2.93066 13.7646 -24.8115 18 -33z"></path>
		</symbol>
		<symbol id="E0A3" viewBox="0 0 1000 1000" overflow="inherit">
			<path transform="scale(1,-1)" d="M98 -102zM200 138l41 -5c-2 0 -41 5 -41 5zM278 64c0 22 -17 39 -43 39c-12 0 -26 -3 -41 -10c-85 -43 -165 -94 -165 -156c5 -25 15 -32 49 -32c67 11 200 95 200 159zM0 -36c0 68 73 174 200 174c66 0 114 -39 114 -97c0 -84 -106 -173 -218 -173c-64 0 -96 32 -96 96z "></path>
		</symbol>
	</defs>
	<style type="text/css">g.page-margin{font-family:Times;} g.tempo{font-weight:bold;} g.dir, g.dynam, g.mNum{font-style:italic;} g.label{font-weight:normal;}</style>
	<svg class="definition-scale" viewBox="0 0 18000 1530">
		<g class="page-margin" transform="translate(200, 200)">
			<g class="system" id="system-0000000599245271">
				<g class="section boundaryStart" id="section-0000000638472494"></g>
				<g class="measure" id="measure-0000001062569738">
					<g class="staff" id="staff-0000001089532693">
						<path d="M0 300 L3008 300" stroke="#000000" stroke-width="13"></path>
						<path d="M0 480 L3008 480" stroke="#000000" stroke-width="13"></path>
						<path d="M0 660 L3008 660" stroke="#000000" stroke-width="13"></path>
						<path d="M0 840 L3008 840" stroke="#000000" stroke-width="13"></path>
						<path d="M0 1020 L3008 1020" stroke="#000000" stroke-width="13"></path>
						<g class="clef" id="clef-0000000612221587">
							<use xlink:href="#E050" x="90" y="840" height="720px" width="720px"></use>
						</g>
						<g class="keySig" id="keysig-0000000935745236">
							<use xlink:href="#E262" x="735" y="300" height="720px" width="720px"></use>
						</g>
						<g class="meterSig" id="msig-0000000062396381">
							<use xlink:href="#E082" x="1056" y="480" height="720px" width="720px"></use>
							<use xlink:href="#E082" x="1056" y="840" height="720px" width="720px"></use>
						</g>
						<g class="layer" id="layer-0000000900669070">
							<g class="note" id="note-0000000216617250">
								<use xlink:href="#E0A4" x="1615" y="840" height="720px" width="720px"></use>
								<g class="stem">
									<rect x="1823" y="210" height="608" width="18"></rect>
								</g>
								<g class="accid" id="accid-0000001669271033"></g>
							</g>
							<g class="note" id="note-0000001462781390">
								<use xlink:href="#E0A4" x="2305" y="840" height="720px" width="720px"></use>
								<g class="stem">
									<rect x="2513" y="210" height="608" width="18"></rect>
								</g>
								<g class="accid" id="accid-0000001964777209"></g>
							</g>
						</g>
					</g>
					<g class="barLineAttr" id="bline-0000001193971905">
						<path d="M2995 1020 L2995 300" stroke="#000000" stroke-width="27"></path>
					</g>
				</g>
				<g class="measure" id="measure-0000000453506571">
					<g class="staff" id="staff-0000001784338744">
						<path d="M3008 300 L6171 300" stroke="#000000" stroke-width="13"></path>
						<path d="M3008 480 L6171 480" stroke="#000000" stroke-width="13"></path>
						<path d="M3008 660 L6171 660" stroke="#000000" stroke-width="13"></path>
						<path d="M3008 840 L6171 840" stroke="#000000" stroke-width="13"></path>
						<path d="M3008 1020 L6171 1020" stroke="#000000" stroke-width="13"></path>
						<g class="layer" id="layer-0000000247977040">
							<g class="note" id="note-0000000760476858">
								<use xlink:href="#E0A4" x="3188" y="480" height="720px" width="720px"></use>
								<g class="stem">
									<rect x="3188" y="502" height="608" width="18"></rect>
								</g>
								<g class="accid" id="accid-0000001583549613"></g>
							</g>
							<g class="note" id="note-0000001619524940">
								<use xlink:href="#E0A4" x="3878" y="480" height="720px" width="720px"></use>
								<g class="stem">
									<rect x="3878" y="502" height="608" width="18"></rect>
								</g>
								<g class="accid" id="accid-0000001285808408"></g>
							</g>
							<g class="note" id="note-0000002017295887">
								<use xlink:href="#E0A4" x="4568" y="390" height="720px" width="720px"></use>
								<g class="stem">
									<rect x="4568" y="412" height="608" width="18"></rect>
								</g>
								<g class="accid" id="accid-0000000135025787"></g>
							</g>
							<g class="note" id="note-0000000195684070">
								<use xlink:href="#E0A4" x="5258" y="210" height="720px" width="720px"></use>
								<g class="stem">
									<rect x="5258" y="232" height="608" width="18"></rect>
									<g class="flag" id="flag-0000000648254950">
										<use xlink:href="#E241" x="5258" y="840" height="720px" width="720px"></use>
									</g>
								</g>
								<g class="accid" id="accid-0000000034222042"></g>
							</g>
							<g class="note" id="note-0000001468700969">
								<use xlink:href="#E0A4" x="5708" y="390" height="720px" width="720px"></use>
								<g class="stem">
									<rect x="5708" y="412" height="608" width="18"></rect>
									<g class="flag" id="flag-0000001749100412">
										<use xlink:href="#E241" x="5708" y="1020" height="720px" width="720px"></use>
									</g>
								</g>
								<g class="accid" id="accid-0000001578631792"></g>
							</g>
						</g>
					</g>
					<g class="barLineAttr" id="bline-0000001707573530">
						<path d="M6158 1020 L6158 300" stroke="#000000" stroke-width="27"></path>
					</g>
				</g>
				<g class="measure" id="measure-0000002042081307">
					<g class="staff" id="staff-0000001555726880">
						<path d="M6171 300 L8794 300" stroke="#000000" stroke-width="13"></path>
						<path d="M6171 480 L8794 480" stroke="#000000" stroke-width="13"></path>
						<path d="M6171 660 L8794 660" stroke="#000000" stroke-width="13"></path>
						<path d="M6171 840 L8794 840" stroke="#000000" stroke-width="13"></path>
						<path d="M6171 1020 L8794 1020" stroke="#000000" stroke-width="13"></path>
						<g class="layer" id="layer-0000000928102909">
							<g class="note" id="note-0000000545875266">
								<use xlink:href="#E0A3" x="6351" y="480" height="720px" width="720px"></use>
								<g class="stem">
									<rect x="6351" y="502" height="608" width="18"></rect>
								</g>
								<g class="accid" id="accid-0000002146108688"></g>
							</g>
							<g class="note" id="note-0000000839761435">
								<use xlink:href="#E0A4" x="7401" y="570" height="720px" width="720px"></use>
								<g class="stem">
									<rect x="7401" y="592" height="608" width="18"></rect>
								</g>
								<g class="accid" id="accid-0000000603112904"></g>
							</g>
							<g class="note" id="note-0000001694864106">
								<use xlink:href="#E0A4" x="8091" y="570" height="720px" width="720px"></use>
								<g class="stem">
									<rect x="8091" y="592" height="608" width="18"></rect>
								</g>
								<g class="accid" id="accid-0000000093928935"></g>
							</g>
						</g>
					</g>
					<g class="barLineAttr" id="bline-0000000408228304">
						<path d="M8781 1020 L8781 300" stroke="#000000" stroke-width="27"></path>
					</g>
				</g>
				<g class="measure" id="measure-0000001104698934">
					<g class="staff" id="staff-0000001143213128">
						<path d="M8794 300 L11747 300" stroke="#000000" stroke-width="13"></path>
						<path d="M8794 480 L11747 480" stroke="#000000" stroke-width="13"></path>
						<path d="M8794 660 L11747 660" stroke="#000000" stroke-width="13"></path>
						<path d="M8794 840 L11747 840" stroke="#000000" stroke-width="13"></path>
						<path d="M8794 1020 L11747 1020" stroke="#000000" stroke-width="13"></path>
						<g class="layer" id="layer-0000001472294510">
							<g class="note" id="note-0000001569491333">
								<use xlink:href="#E0A4" x="8974" y="660" height="720px" width="720px"></use>
								<g class="stem">
									<rect x="8974" y="682" height="608" width="18"></rect>
								</g>
								<g class="accid" id="accid-0000000471692444"></g>
							</g>
							<g class="note" id="note-0000000708328583">
								<use xlink:href="#E0A4" x="9664" y="660" height="720px" width="720px"></use>
								<g class="stem">
									<rect x="9664" y="682" height="608" width="18"></rect>
								</g>
								<g class="accid" id="accid-0000002026985153"></g>
							</g>
							<g class="note" id="note-0000001644105208">
								<use xlink:href="#E0A4" x="10354" y="750" height="720px" width="720px"></use>
								<g class="stem">
									<rect x="10562" y="120" height="608" width="18"></rect>
								</g>
								<g class="accid" id="accid-0000001442473695"></g>
							</g>
							<g class="note" id="note-0000000441139773">
								<use xlink:href="#E0A4" x="11044" y="750" height="720px" width="720px"></use>
								<g class="stem">
									<rect x="11252" y="120" height="608" width="18"></rect>
								</g>
								<g class="accid" id="accid-0000000019959286"></g>
							</g>
						</g>
					</g>
					<g class="barLineAttr" id="bline-0000001513532480">
						<path d="M11734 1020 L11734 300" stroke="#000000" stroke-width="27"></path>
					</g>
				</g>
				<g class="measure" id="measure-0000001975209926">
					<g class="staff" id="staff-0000001882106722">
						<path d="M11747 300 L13022 300" stroke="#000000" stroke-width="13"></path>
						<path d="M11747 480 L13022 480" stroke="#000000" stroke-width="13"></path>
						<path d="M11747 660 L13022 660" stroke="#000000" stroke-width="13"></path>
						<path d="M11747 840 L13022 840" stroke="#000000" stroke-width="13"></path>
						<path d="M11747 1020 L13022 1020" stroke="#000000" stroke-width="13"></path>
						<g class="layer" id="layer-0000001146149410">
							<g class="note" id="note-0000001533393460">
								<use xlink:href="#E0A3" x="11927" y="840" height="720px" width="720px"></use>
								<g class="stem">
									<rect x="12135" y="210" height="608" width="18"></rect>
								</g>
								<g class="accid" id="accid-0000001655983548"></g>
							</g>
						</g>
					</g>
					<g class="barLineAttr" id="bline-0000000819759494">
						<path d="M12860 1020 L12860 300" stroke="#000000" stroke-width="27"></path>
						<path d="M12977 1020 L12977 300" stroke="#000000" stroke-width="90"></path>
						<ellipse cx="12770" cy="750" rx="36" ry="36"></ellipse>
						<ellipse cx="12770" cy="570" rx="36" ry="36"></ellipse>
					</g>
				</g>
				<g class="boundaryEnd section-0000000638472494" id="bdend-0000001578876964"></g>
			</g>
			<g class="pgHead autogenerated" id="pghead-0000001102045132"></g>
		</g>
	</svg>
</svg>